#Comment line ignore any data following # character 
#Hierarchical Translation and Rotation (.htr) file 
[Header]	
#Header keywords are followed by a single value 
FileType HTR		#Single word string
DataType HTRS		#Translation followed by rotation and scale data
FileVersion 1		#integer
NumSegments 84		#integer
NumFrames 2		#integer
DataFrameRate 30		#integer, data frame rate in this file
EulerRotationOrder ZYX
CalibrationUnits mm
RotationUnits Degrees
GlobalAxisofGravity Y
BoneLengthAxis Y
ScaleFactor 1.00
[SegmentNames&Hierarchy]
#CHILD	PARENT
MASTER GLOBAL
root MASTER
chest root
L_mid_tent01 root
R_mid_tent01 root
spine01 root
Bip01_Neck chest
L_humerus chest
R_humerus chest
weapon_bone chest
Bip01_Head Bip01_Neck
eye_left_bone Bip01_Head
eye_right_bone Bip01_Head
L_forearm L_humerus
L_front_hand L_forearm
L_weapon_bone L_forearm
L_front_hand01_01 L_front_hand
L_front_hand02_01 L_front_hand
L_front_hand03_01 L_front_hand
L_front_hand01_02 L_front_hand01_01
L_front_hand02_02 L_front_hand02_01
L_front_hand03_02 L_front_hand03_01
R_forearm R_humerus
R_front_hand R_forearm
R_weapon_bone R_forearm
R_front_hand01_01 R_front_hand
R_front_hand02_01 R_front_hand
R_front_hand03_01 R_front_hand
R_front_hand01_02 R_front_hand01_01
R_front_hand02_02 R_front_hand02_01
R_front_hand03_02 R_front_hand03_01
null_rope01_connect L_mid_tent01
Rope1_Seg01 null_rope01_connect
Rope1_Seg02 Rope1_Seg01
Rope1_Seg03 Rope1_Seg02
Rope1_Seg04 Rope1_Seg03
Rope1_Seg05 Rope1_Seg04
Rope1_Seg06 Rope1_Seg05
Rope1_Seg07 Rope1_Seg06
Rope1_Seg09 Rope1_Seg07
L_mid_hand01 Rope1_Seg09
L_mid_hand02 Rope1_Seg09
L_mid_hand03 Rope1_Seg09
null_rope02_connect R_mid_tent01
Rope2_Seg01 null_rope02_connect
Rope2_Seg02 Rope2_Seg01
Rope2_Seg03 Rope2_Seg02
Rope2_Seg04 Rope2_Seg03
Rope2_Seg05 Rope2_Seg04
Rope2_Seg06 Rope2_Seg05
Rope2_Seg07 Rope2_Seg06
Rope2_Seg09 Rope2_Seg07
R_mid_hand01 Rope2_Seg09
R_mid_hand02 Rope2_Seg09
R_mid_hand03 Rope2_Seg09
spine02 spine01
spine03 spine02
pelvis spine03
null_rope03_connect pelvis
null_rope04_connect pelvis
Rope3_Seg01 null_rope03_connect
Rope3_Seg02 Rope3_Seg01
Rope3_Seg03 Rope3_Seg02
Rope3_Seg04 Rope3_Seg03
Rope3_Seg05 Rope3_Seg04
Rope3_Seg06 Rope3_Seg05
Rope3_Seg07 Rope3_Seg06
Rope3_Seg08 Rope3_Seg07
Rope3_Seg09 Rope3_Seg08
R_rear_hand01 Rope3_Seg09
R_rear_hand02 Rope3_Seg09
R_rear_hand03 Rope3_Seg09
Rope4_Seg01 null_rope04_connect
Rope4_Seg02 Rope4_Seg01
Rope4_Seg03 Rope4_Seg02
Rope4_Seg04 Rope4_Seg03
Rope4_Seg05 Rope4_Seg04
Rope4_Seg06 Rope4_Seg05
Rope4_Seg07 Rope4_Seg06
Rope4_Seg08 Rope4_Seg07
Rope4_Seg09 Rope4_Seg08
L_rear_hand01 Rope4_Seg09
L_rear_hand02 Rope4_Seg09
L_rear_hand03 Rope4_Seg09
[BasePosition]
#SegmentName Tx, Ty, Tz, Rx, Ry, Rz, BoneLength
MASTER 0.000000 0.000000 0.000000 -90.000000 0.000000 0.000000 10.000000 
root 0.000000 0.000000 0.000000 0.000000 0.000000 0.000000 10.000000 
chest 0.000000 0.000000 0.000000 0.000000 0.000000 0.000000 10.000000 
L_mid_tent01 0.000000 0.000000 0.000000 0.000000 0.000000 0.000000 10.000000 
R_mid_tent01 0.000000 0.000000 0.000000 0.000000 0.000000 0.000000 10.000000 
spine01 0.000000 0.000000 0.000000 0.000000 0.000000 0.000000 10.000000 
Bip01_Neck 0.000000 0.000000 0.000000 0.000000 0.000000 0.000000 10.000000 
L_humerus 0.000000 0.000000 0.000000 0.000000 0.000000 0.000000 10.000000 
R_humerus 0.000000 0.000000 0.000000 0.000000 0.000000 0.000000 10.000000 
weapon_bone 0.000000 0.000000 0.000000 0.000000 0.000000 0.000000 10.000000 
Bip01_Head 0.000000 0.000000 0.000000 0.000000 0.000000 0.000000 10.000000 
eye_left_bone 0.000000 0.000000 0.000000 0.000000 0.000000 0.000000 10.000000 
eye_right_bone 0.000000 0.000000 0.000000 0.000000 0.000000 0.000000 10.000000 
L_forearm 0.000000 0.000000 0.000000 0.000000 0.000000 0.000000 10.000000 
L_front_hand 0.000000 0.000000 0.000000 0.000000 0.000000 0.000000 10.000000 
L_weapon_bone 0.000000 0.000000 0.000000 0.000000 0.000000 0.000000 10.000000 
L_front_hand01_01 0.000000 0.000000 0.000000 0.000000 0.000000 0.000000 10.000000 
L_front_hand02_01 0.000000 0.000000 0.000000 0.000000 0.000000 0.000000 10.000000 
L_front_hand03_01 0.000000 0.000000 0.000000 0.000000 0.000000 0.000000 10.000000 
L_front_hand01_02 0.000000 0.000000 0.000000 0.000000 0.000000 0.000000 10.000000 
L_front_hand02_02 0.000000 0.000000 0.000000 0.000000 0.000000 0.000000 10.000000 
L_front_hand03_02 0.000000 0.000000 0.000000 0.000000 0.000000 0.000000 10.000000 
R_forearm 0.000000 0.000000 0.000000 0.000000 0.000000 0.000000 10.000000 
R_front_hand 0.000000 0.000000 0.000000 0.000000 0.000000 0.000000 10.000000 
R_weapon_bone 0.000000 0.000000 0.000000 0.000000 0.000000 0.000000 10.000000 
R_front_hand01_01 0.000000 0.000000 0.000000 0.000000 0.000000 0.000000 10.000000 
R_front_hand02_01 0.000000 0.000000 0.000000 0.000000 0.000000 0.000000 10.000000 
R_front_hand03_01 0.000000 0.000000 0.000000 0.000000 0.000000 0.000000 10.000000 
R_front_hand01_02 0.000000 0.000000 0.000000 0.000000 0.000000 0.000000 10.000000 
R_front_hand02_02 0.000000 0.000000 0.000000 0.000000 0.000000 0.000000 10.000000 
R_front_hand03_02 0.000000 0.000000 0.000000 0.000000 0.000000 0.000000 10.000000 
null_rope01_connect 0.000000 0.000000 0.000000 0.000000 0.000000 0.000000 10.000000 
Rope1_Seg01 0.000000 0.000000 0.000000 0.000000 0.000000 0.000000 10.000000 
Rope1_Seg02 0.000000 0.000000 0.000000 0.000000 0.000000 0.000000 10.000000 
Rope1_Seg03 0.000000 0.000000 0.000000 0.000000 0.000000 0.000000 10.000000 
Rope1_Seg04 0.000000 0.000000 0.000000 0.000000 0.000000 0.000000 10.000000 
Rope1_Seg05 0.000000 0.000000 0.000000 0.000000 0.000000 0.000000 10.000000 
Rope1_Seg06 0.000000 0.000000 0.000000 0.000000 0.000000 0.000000 10.000000 
Rope1_Seg07 0.000000 0.000000 0.000000 0.000000 0.000000 0.000000 10.000000 
Rope1_Seg09 0.000000 0.000000 0.000000 0.000000 0.000000 0.000000 10.000000 
L_mid_hand01 0.000000 0.000000 0.000000 0.000000 0.000000 0.000000 10.000000 
L_mid_hand02 0.000000 0.000000 0.000000 0.000000 0.000000 0.000000 10.000000 
L_mid_hand03 0.000000 0.000000 0.000000 0.000000 0.000000 0.000000 10.000000 
null_rope02_connect 0.000000 0.000000 0.000000 0.000000 0.000000 0.000000 10.000000 
Rope2_Seg01 0.000000 0.000000 0.000000 0.000000 0.000000 0.000000 10.000000 
Rope2_Seg02 0.000000 0.000000 0.000000 0.000000 0.000000 0.000000 10.000000 
Rope2_Seg03 0.000000 0.000000 0.000000 0.000000 0.000000 0.000000 10.000000 
Rope2_Seg04 0.000000 0.000000 0.000000 0.000000 0.000000 0.000000 10.000000 
Rope2_Seg05 0.000000 0.000000 0.000000 0.000000 0.000000 0.000000 10.000000 
Rope2_Seg06 0.000000 0.000000 0.000000 0.000000 0.000000 0.000000 10.000000 
Rope2_Seg07 0.000000 0.000000 0.000000 0.000000 0.000000 0.000000 10.000000 
Rope2_Seg09 0.000000 0.000000 0.000000 0.000000 0.000000 0.000000 10.000000 
R_mid_hand01 0.000000 0.000000 0.000000 0.000000 0.000000 0.000000 10.000000 
R_mid_hand02 0.000000 0.000000 0.000000 0.000000 0.000000 0.000000 10.000000 
R_mid_hand03 0.000000 0.000000 0.000000 0.000000 0.000000 0.000000 10.000000 
spine02 0.000000 0.000000 0.000000 0.000000 0.000000 0.000000 10.000000 
spine03 0.000000 0.000000 0.000000 0.000000 0.000000 0.000000 10.000000 
pelvis 0.000000 0.000000 0.000000 0.000000 0.000000 0.000000 10.000000 
null_rope03_connect 0.000000 0.000000 0.000000 0.000000 0.000000 0.000000 10.000000 
null_rope04_connect 0.000000 0.000000 0.000000 0.000000 0.000000 0.000000 10.000000 
Rope3_Seg01 0.000000 0.000000 0.000000 0.000000 0.000000 0.000000 10.000000 
Rope3_Seg02 0.000000 0.000000 0.000000 0.000000 0.000000 0.000000 10.000000 
Rope3_Seg03 0.000000 0.000000 0.000000 0.000000 0.000000 0.000000 10.000000 
Rope3_Seg04 0.000000 0.000000 0.000000 0.000000 0.000000 0.000000 10.000000 
Rope3_Seg05 0.000000 0.000000 0.000000 0.000000 0.000000 0.000000 10.000000 
Rope3_Seg06 0.000000 0.000000 0.000000 0.000000 0.000000 0.000000 10.000000 
Rope3_Seg07 0.000000 0.000000 0.000000 0.000000 0.000000 0.000000 10.000000 
Rope3_Seg08 0.000000 0.000000 0.000000 0.000000 0.000000 0.000000 10.000000 
Rope3_Seg09 0.000000 0.000000 0.000000 0.000000 0.000000 0.000000 10.000000 
R_rear_hand01 0.000000 0.000000 0.000000 0.000000 0.000000 0.000000 10.000000 
R_rear_hand02 0.000000 0.000000 0.000000 0.000000 0.000000 0.000000 10.000000 
R_rear_hand03 0.000000 0.000000 0.000000 0.000000 0.000000 0.000000 10.000000 
Rope4_Seg01 0.000000 0.000000 0.000000 0.000000 0.000000 0.000000 10.000000 
Rope4_Seg02 0.000000 0.000000 0.000000 0.000000 0.000000 0.000000 10.000000 
Rope4_Seg03 0.000000 0.000000 0.000000 0.000000 0.000000 0.000000 10.000000 
Rope4_Seg04 0.000000 0.000000 0.000000 0.000000 0.000000 0.000000 10.000000 
Rope4_Seg05 0.000000 0.000000 0.000000 0.000000 0.000000 0.000000 10.000000 
Rope4_Seg06 0.000000 0.000000 0.000000 0.000000 0.000000 0.000000 10.000000 
Rope4_Seg07 0.000000 0.000000 0.000000 0.000000 0.000000 0.000000 10.000000 
Rope4_Seg08 0.000000 0.000000 0.000000 0.000000 0.000000 0.000000 10.000000 
Rope4_Seg09 0.000000 0.000000 0.000000 0.000000 0.000000 0.000000 10.000000 
L_rear_hand01 0.000000 0.000000 0.000000 0.000000 0.000000 0.000000 10.000000 
L_rear_hand02 0.000000 0.000000 0.000000 0.000000 0.000000 0.000000 10.000000 
L_rear_hand03 0.000000 0.000000 0.000000 0.000000 0.000000 0.000000 10.000000 
#Beginning of Data. Separated by tabs
#Fr	Tx	Ty	Tz	Rx	Ry	Rz	SF
[MASTER]
48 0.000000 0.000000 0.000000 0.001660 0.001660 0.001660 0.000000
49 0.000000 0.000000 0.000000 0.001660 0.001660 0.001660 0.000000
[root]
48 -16.502245 -199.343781 1093.534668 -85.747337 -61.785347 -93.080734 1111.678223
49 -16.502245 -199.343781 1093.534668 -85.747307 -61.785316 -93.080688 1111.678223
[chest]
48 -84.512650 -34.090519 0.000000 2.305805 -1.467383 -122.601036 91.129311
49 -84.512650 -34.090519 0.000000 2.318352 -1.497434 -122.990303 91.129311
[L_mid_tent01]
48 27.299500 22.177483 -249.917984 -16.988775 0.983917 124.026581 252.380859
49 27.299500 22.177483 -249.917984 -16.970228 0.914283 123.556213 252.380859
[R_mid_tent01]
48 23.228794 24.509907 226.238495 -174.911209 1.873474 114.011391 228.744751
49 23.228794 24.509907 226.238495 -174.910110 1.875344 113.525124 228.744751
[spine01]
48 -0.361383 -0.195265 0.000000 -0.000001 -0.000007 22.052340 0.410763
49 -0.361383 -0.195265 0.000000 -0.000001 -0.000007 22.052340 0.410763
[Bip01_Neck]
48 165.484543 71.581718 0.000119 175.896118 1.177290 24.871183 180.302734
49 165.484543 71.581718 0.000119 175.896118 1.177290 24.871183 180.302734
[L_humerus]
48 -13.983130 -135.272980 -120.471481 -91.668335 0.804969 -167.458282 181.680161
49 -13.983130 -135.272980 -120.471481 -91.668335 0.804969 -167.458282 181.680161
[R_humerus]
48 -13.983309 -135.273102 125.287651 103.000740 1.729733 -169.272232 184.909012
49 -13.983309 -135.273102 125.287651 103.000740 1.729732 -169.272232 184.909012
[weapon_bone]
48 235.964890 -300.705902 0.000000 0.000000 -89.951546 -128.212341 382.234833
49 235.964890 -300.705902 0.000000 0.000000 -89.951546 -128.212341 382.234833
[Bip01_Head]
48 102.819786 23.735432 5.410404 3.150732 3.423701 -20.839092 105.662445
49 102.819786 23.735432 5.410404 3.150732 3.423701 -20.839092 105.662445
[eye_left_bone]
48 -24.626970 125.451866 -64.772606 0.000000 -90.000000 -99.840431 143.318359
49 -24.626970 125.451866 -64.772606 0.000000 -90.000000 -99.840431 143.318359
[eye_right_bone]
48 -24.626970 125.451866 64.327362 0.000000 -89.960434 80.159386 143.117676
49 -24.626970 125.451866 64.327362 0.000000 -89.960434 80.159386 143.117676
[L_forearm]
48 322.776093 0.000000 -0.000119 0.000017 0.002347 -89.149834 322.776093
49 322.776093 0.000000 -0.000119 0.000017 0.002347 -89.149834 322.776093
[L_front_hand]
48 241.149185 -0.042021 -3.300071 -177.733505 -0.055901 -80.041069 241.171753
49 241.149185 -0.042021 -3.300071 -177.733505 -0.055987 -80.036781 241.171753
[L_weapon_bone]
48 156.183838 0.000000 0.000000 0.000014 0.000007 0.000001 156.183838
49 156.183838 0.000000 0.000000 0.000014 0.000007 0.000001 156.183838
[L_front_hand01_01]
48 86.095154 20.947098 -0.655860 0.405585 -0.442306 -4.620490 88.609184
49 86.095154 20.947098 -0.655860 0.405585 -0.442306 -4.620490 88.609184
[L_front_hand02_01]
48 86.935165 -11.437475 24.513514 116.959450 3.630817 1.495453 91.046425
49 86.935165 -11.437475 24.513514 116.959450 3.630817 1.495453 91.046425
[L_front_hand03_01]
48 86.637497 -14.123976 -20.424902 -118.420097 -4.656303 -0.152527 90.126129
49 86.637497 -14.123976 -20.424902 -118.420097 -4.656303 -0.152527 90.126129
[L_front_hand01_02]
48 71.020905 -0.000179 0.000030 0.000004 -0.000005 -8.379269 71.020905
49 71.020905 -0.000179 0.000030 0.000004 -0.000005 -8.379269 71.020905
[L_front_hand02_02]
48 71.020927 -0.000119 0.000060 -0.000005 -0.000004 -8.379259 71.020927
49 71.020927 -0.000119 0.000060 -0.000005 -0.000004 -8.379259 71.020927
[L_front_hand03_02]
48 71.020905 -0.000060 0.000060 0.000015 -0.000040 -8.379267 71.020905
49 71.020905 -0.000060 0.000060 0.000015 -0.000040 -8.379267 71.020905
[R_forearm]
48 322.776428 -0.000060 0.000030 0.207846 -0.034266 -81.428246 322.776428
49 322.776428 -0.000060 0.000030 0.207852 -0.034228 -81.449440 322.776428
[R_front_hand]
48 238.847015 -0.006795 2.210259 -1.675179 -0.419719 -92.763161 238.857239
49 238.847015 -0.006795 2.210259 -1.674338 -0.418775 -92.759773 238.857239
[R_weapon_bone]
48 155.664093 0.002503 -0.000030 0.003487 0.001180 -90.988930 155.664078
49 155.664093 0.002503 -0.000030 0.003487 0.001180 -90.988930 155.664078
[R_front_hand01_01]
48 87.624611 14.231146 22.918642 -116.960213 3.496675 -1.324139 91.683487
49 87.624611 14.231146 22.918642 -116.960213 3.496675 -1.324139 91.683487
[R_front_hand02_01]
48 89.356956 14.367283 -19.491137 118.419647 -4.257089 0.609827 92.579636
49 89.356956 14.367283 -19.491137 118.419647 -4.257089 0.609827 92.579636
[R_front_hand03_01]
48 87.286232 -22.307278 -0.143439 -0.387970 -0.231462 4.232001 90.091743
49 87.286232 -22.307278 -0.143439 -0.387970 -0.231462 4.232001 90.091743
[R_front_hand01_02]
48 71.020905 0.000060 0.000119 -0.000005 -0.000020 8.379271 71.020905
49 71.020905 0.000060 0.000119 -0.000005 -0.000020 8.379271 71.020905
[R_front_hand02_02]
48 71.020844 -0.000030 -0.000119 0.000000 -0.000021 8.379271 71.020836
49 71.020844 -0.000030 -0.000119 0.000000 -0.000021 8.379271 71.020836
[R_front_hand03_02]
48 71.020905 0.000000 0.000030 -0.000001 -0.000020 8.379275 71.020905
49 71.020905 0.000000 0.000030 -0.000001 -0.000020 8.379275 71.020905
[null_rope01_connect]
48 328.732483 0.000000 -0.000238 114.126579 -73.321999 -86.149109 328.732483
49 328.732483 0.000000 -0.000238 114.362564 -73.353065 -85.904449 328.732483
[Rope1_Seg01]
48 0.000000 0.000000 0.000000 75.714905 34.870571 87.190117 0.000000
49 0.000000 0.000000 0.000000 75.843231 36.484238 87.700096 0.000000
[Rope1_Seg02]
48 139.999863 -0.000179 0.000000 47.996292 -17.575914 57.561558 139.999863
49 139.999863 -0.000179 0.000000 46.722050 -18.076101 58.935230 139.999863
[Rope1_Seg03]
48 139.999924 0.000060 -0.000060 38.625683 6.864547 11.399952 139.999924
49 139.999924 0.000060 -0.000060 37.087666 6.442638 10.975806 139.999924
[Rope1_Seg04]
48 139.999924 -0.000060 -0.000119 54.007484 40.895130 19.935150 139.999924
49 139.999924 -0.000060 -0.000119 55.847244 39.366604 21.110792 139.999924
[Rope1_Seg05]
48 139.999832 0.000119 -0.000060 1.052176 26.704765 -13.757373 139.999832
49 139.999832 0.000119 -0.000060 1.309900 27.769419 -14.074741 139.999832
[Rope1_Seg06]
48 139.999954 0.000119 -0.000060 -0.469064 10.886960 -6.291095 139.999954
49 139.999954 0.000119 -0.000060 -0.466713 11.178383 -6.457814 139.999954
[Rope1_Seg07]
48 139.999985 0.000060 0.000000 -0.220976 3.846593 -2.207970 139.999985
49 139.999985 0.000060 0.000000 -0.230300 4.019520 -2.307743 139.999985
[Rope1_Seg09]
48 121.602913 0.000119 -0.000089 -89.793175 -1.359789 0.847147 121.602913
49 121.602913 0.000119 -0.000089 -89.793175 -1.359789 0.847147 121.602913
[L_mid_hand01]
48 103.859421 1.038730 8.195221 104.352036 0.341479 -0.444583 104.187431
49 103.859421 1.038730 8.195221 104.352036 0.341479 -0.444584 104.187431
[L_mid_hand02]
48 105.572853 -4.139662 -10.864139 -135.608444 3.905687 -3.381056 106.211075
49 105.572853 -4.139662 -10.864139 -135.608444 3.905687 -3.381056 106.211075
[L_mid_hand03]
48 104.641464 17.579376 -3.913581 -18.761518 -0.324361 2.942912 106.179977
49 104.641464 17.579376 -3.913581 -18.761518 -0.324361 2.942912 106.179977
[null_rope02_connect]
48 328.732849 0.000179 -0.000119 129.066116 84.203262 -88.750504 328.732849
49 328.732849 0.000179 -0.000119 129.474716 84.184555 -88.821365 328.732849
[Rope2_Seg01]
48 0.000076 0.000112 0.000153 -6.924979 51.794186 105.403000 0.000204
49 0.000076 0.000112 0.000153 -7.088290 51.839802 105.219025 0.000204
[Rope2_Seg02]
48 139.999741 -0.000060 -0.000119 -15.306330 -48.052200 -26.667995 139.999756
49 139.999741 -0.000060 -0.000119 -14.866825 -47.036720 -25.616453 139.999756
[Rope2_Seg03]
48 140.000107 0.000030 0.000000 -29.857363 -23.162552 -32.333946 140.000107
49 140.000107 0.000030 0.000000 -30.196590 -24.234150 -32.766872 140.000107
[Rope2_Seg04]
48 139.999802 0.000000 -0.000060 -19.939890 -11.222723 -28.793779 139.999802
49 139.999802 0.000000 -0.000060 -19.833080 -11.118336 -28.362621 139.999802
[Rope2_Seg05]
48 139.999985 -0.000060 0.000119 -13.706268 -0.747725 -35.112926 139.999985
49 139.999985 -0.000060 0.000119 -13.982976 -1.055196 -35.468826 139.999985
[Rope2_Seg06]
48 139.999893 -0.000030 -0.000119 -2.510875 3.648626 -14.155081 139.999893
49 139.999893 -0.000030 -0.000119 -2.597876 3.680927 -14.388418 139.999893
[Rope2_Seg07]
48 139.999893 0.000060 -0.000060 -0.409912 1.717614 -5.756125 139.999893
49 139.999893 0.000060 -0.000060 -0.426919 1.754358 -5.882014 139.999893
[Rope2_Seg09]
48 121.338966 0.000089 -0.000060 33.793236 -1.359788 -0.847141 121.338966
49 121.338966 0.000089 -0.000060 33.793236 -1.359788 -0.847141 121.338966
[R_mid_hand01]
48 104.680779 11.144459 -10.335981 -47.384258 2.963522 5.452604 105.778534
49 104.680779 11.144459 -10.335981 -47.384258 2.963522 5.452604 105.778534
[R_mid_hand02]
48 104.070427 2.443552 8.231699 75.626297 -2.250001 1.111093 104.424065
49 104.070427 2.443552 8.231699 75.626297 -2.250001 1.111093 104.424065
[R_mid_hand03]
48 106.028137 -11.221827 -5.996406 -164.381912 2.495983 -6.140520 106.788818
49 106.028137 -11.221827 -5.996406 -164.381912 2.495983 -6.140520 106.788818
[spine02]
48 129.756927 0.001550 0.000119 -3.493813 -2.971730 46.273830 129.756927
49 129.756927 0.001550 0.000119 -3.481490 -2.987300 46.017387 129.756927
[spine03]
48 79.115631 0.000000 -0.000119 5.452209 8.381852 51.258305 79.115631
49 79.115631 0.000000 -0.000119 5.425922 8.403599 50.961098 79.115631
[pelvis]
48 169.435242 0.051022 0.000000 -7.296357 -2.850560 14.015548 169.435257
49 169.435242 0.051022 0.000000 -7.285336 -2.848295 13.992563 169.435257
[null_rope03_connect]
48 -1.257226 -2.466202 137.391083 150.891891 -84.378067 -132.015656 137.418976
49 -1.257226 -2.466202 137.391083 151.311874 -84.379707 -131.872696 137.418976
[null_rope04_connect]
48 -1.259640 -2.480268 -137.844437 150.891891 -84.378067 -132.015656 137.872513
49 -1.259640 -2.480268 -137.844437 151.311874 -84.379707 -131.872696 137.872513
[Rope3_Seg01]
48 0.000010 0.000038 -0.000114 -174.998352 77.123871 -109.847565 0.000121
49 0.000010 0.000038 -0.000114 -175.546432 77.407890 -110.283028 0.000121
[Rope3_Seg02]
48 139.999924 -0.000119 0.000060 -9.032951 -17.392561 9.594575 139.999924
49 139.999924 -0.000119 0.000060 -8.874419 -17.194429 9.426985 139.999924
[Rope3_Seg03]
48 139.999924 -0.000119 0.000119 -17.915741 -42.238285 20.218945 139.999924
49 139.999924 -0.000119 0.000119 -17.671732 -41.870781 19.937990 139.999924
[Rope3_Seg04]
48 139.999924 0.000119 0.000000 -1.153287 -25.252871 5.152649 139.999924
49 139.999924 0.000119 0.000000 -1.227683 -25.452757 5.237822 139.999924
[Rope3_Seg05]
48 139.999924 -0.000238 0.000060 8.598310 -56.520184 12.848857 139.999924
49 139.999924 -0.000238 0.000060 8.522125 -55.969048 12.562292 139.999924
[Rope3_Seg06]
48 139.999893 -0.000119 -0.000060 11.469654 -47.872715 29.210722 139.999893
49 139.999893 -0.000119 -0.000060 11.433270 -48.523357 29.442299 139.999893
[Rope3_Seg07]
48 139.999771 0.000060 -0.000119 3.166663 -5.655604 6.481798 139.999771
49 139.999771 0.000060 -0.000119 3.192143 -5.713398 6.538674 139.999771
[Rope3_Seg08]
48 139.999985 -0.000060 0.000000 1.529997 -2.054912 2.653219 139.999985
49 139.999985 -0.000060 0.000000 1.535684 -2.066363 2.666578 139.999985
[Rope3_Seg09]
48 90.185997 -0.000179 -0.000060 89.793228 -1.359877 -0.847183 90.185997
49 90.185997 -0.000179 -0.000060 89.793228 -1.359877 -0.847183 90.185997
[R_rear_hand01]
48 103.366196 -6.073594 -10.757982 -156.049316 6.070419 -2.795869 104.101845
49 103.366196 -6.073594 -10.757982 -156.049316 6.070419 -2.795869 104.101845
[R_rear_hand02]
48 100.509819 12.039542 -7.992327 -38.708424 1.958050 5.461185 101.543350
49 100.509819 12.039542 -7.992327 -38.708435 1.958051 5.461186 101.543350
[R_rear_hand03]
48 101.539970 5.215704 5.435467 84.307625 -2.361032 4.099037 101.819031
49 101.539970 5.215704 5.435467 84.307625 -2.361032 4.099037 101.819031
[Rope4_Seg01]
48 -0.000017 0.000005 -0.000224 86.823547 79.891541 -75.239731 0.000225
49 -0.000018 0.000003 -0.000226 87.153671 80.126236 -74.992699 0.000227
[Rope4_Seg02]
48 139.999985 0.000060 0.000119 4.387630 4.851861 -13.123258 139.999985
49 139.999985 0.000060 0.000119 4.328944 4.773847 -12.973509 139.999985
[Rope4_Seg03]
48 139.999924 0.000000 -0.000238 5.195779 10.401881 -42.507568 139.999924
49 139.999924 0.000000 -0.000238 5.222637 10.271295 -41.875324 139.999924
[Rope4_Seg04]
48 139.999985 0.000000 0.000119 -2.638257 3.707848 -39.913589 139.999985
49 139.999985 0.000000 0.000119 -2.602361 3.769991 -40.240479 139.999985
[Rope4_Seg05]
48 139.999802 -0.000060 -0.000119 -7.611350 5.369305 -28.212368 139.999802
49 139.999802 -0.000060 -0.000119 -7.458674 5.281774 -27.903540 139.999802
[Rope4_Seg06]
48 139.999924 0.000000 0.000060 -22.517622 14.025988 -50.130112 139.999924
49 139.999924 0.000000 0.000060 -22.519968 13.938558 -50.271252 139.999924
[Rope4_Seg07]
48 139.999802 0.000000 0.000000 -6.904633 10.991872 -17.143440 139.999802
49 139.999802 0.000000 0.000000 -7.031295 11.097589 -17.398685 139.999802
[Rope4_Seg08]
48 139.999924 0.000000 0.000119 -2.710895 3.249539 -4.074904 139.999924
49 139.999924 0.000000 0.000119 -2.735988 3.302745 -4.146292 139.999924
[Rope4_Seg09]
48 90.185791 0.000060 0.000060 -135.617828 2.228885 0.850567 90.185791
49 90.185791 0.000060 0.000060 -135.617828 2.228885 0.850567 90.185791
[L_rear_hand01]
48 101.696655 -8.392275 -7.654577 -38.746338 0.246096 177.290207 102.329041
49 101.696655 -8.392275 -7.654577 -38.746338 0.246096 177.290207 102.329041
[L_rear_hand02]
48 102.726799 -1.568258 5.773216 84.314880 -1.139137 176.250763 102.900848
49 102.726799 -1.568258 5.773216 84.314880 -1.139137 176.250763 102.900848
[L_rear_hand03]
48 104.552910 9.721220 -10.420293 -155.747955 -4.630845 179.564758 105.519653
49 104.552910 9.721220 -10.420293 -155.747955 -4.630845 179.564758 105.519653
